<?xml version="1.0" encoding="UTF-8"?>
<svg id="Layer_2" data-name="Layer 2" xmlns="http://www.w3.org/2000/svg" viewBox="0 0 496.24 496.29">
  <g id="Layer_1-2" data-name="Layer 1">
    <path d="M496.24,231.48v32.95l-8.03,46.73c-23.72,91.64-100.39,163.05-193.37,180.76l-30.25,4.16c-10.87-.48-22.13.65-32.95,0C28.12,483.96-73.85,238.02,61.52,84.14,207.16-81.43,482.76,12.94,496.24,231.48ZM158.59,118.38c-2.3.13-4.65,1.7-6.46,3.06-26.97,20.17-40.7,49.32-31.24,82.67,18.29,64.51,87.92,134.22,148.58,160.61,26.9,11.7,52.9,19.23,80.1,3.59,6.11-3.51,23.18-17.89,26.73-23.67,4.07-6.61,2.32-10.24-2.16-15.77-6.54-8.07-38.15-40.35-45.83-45.28-4.65-2.99-7.73-3.53-12.69-.59-11.35,6.72-24.3,29.68-37.25,33.5-14.51,4.29-30.76-11.15-41.38-20.1-14.41-12.15-47.41-44.03-55.18-60.16-11.81-24.52,20.81-37.77,31.82-54.25,3.83-5.73,3.19-9.2-.88-14.49-6.4-8.32-37.85-40.07-46.04-46.04-2.27-1.66-5.2-3.23-8.13-3.06Z"/>
  </g>
</svg>