<?xml version="1.0" encoding="UTF-8"?>
<svg id="Layer_2" data-name="Layer 2" xmlns="http://www.w3.org/2000/svg" viewBox="0 0 496.36 372.35">
  <g id="Layer_1-2" data-name="Layer 1">
    <g>
      <path d="M496.36,104.72v228.74c-4.77,21.7-20.7,36.92-43.15,38.75l-408.08.06C26.21,373.75.11,352.02.11,332.98V104.72l210.03,139.38c23.37,13.66,52.82,13.66,76.19,0l210.03-139.38Z"/>
      <path d="M496.36,38.81v14.54c-3.27,11.43-8.84,22.31-19.08,28.9-68.63,41.25-134.11,95.32-202.96,135.31-15.13,8.78-28.84,11.15-45.47,3.96C156.26,173.47,83.02,126.02,11.77,76.1-14.01,46.23,5.15,2.72,44.17,0l410.02.06c15.68,1.71,29.31,10.33,36.86,24.2l5.31,14.55Z"/>
    </g>
  </g>
</svg>