<?xml version="1.0" encoding="UTF-8"?>
<svg id="Layer_2" data-name="Layer 2" xmlns="http://www.w3.org/2000/svg" viewBox="0 0 495.16 494.9">
  <g id="Layer_1-2" data-name="Layer 1">
    <path d="M265.02,0l29.17,4.17c141.78,27.48,230.63,169.64,191.86,310.12-22.48,81.45-88.42,148.04-169.81,170.84v-183.62h53.15l7.73-60.88h-60.88v-50.74c0-.41,2.55-6.6,3.07-7.56,2.58-4.81,6.48-7.89,11.64-9.63,3.24-1.09,11.61-2.63,14.77-2.63h33.34v-55.08l-30.4-1.97c-33.68-2.15-68.21,4.46-85.97,35.87-3.93,6.96-10.23,24.61-10.23,32.3v57.98l-1.45,1.45h-51.7v61.85h53.15v192.31c-119.36,3.51-226.33-83.97-248.06-200.83L.22,264.79c.52-11.42-.7-23.44,0-34.79C7.67,109.42,109.64,7.44,230.23,0h34.79Z"/>
  </g>
</svg>