<?xml version="1.0" encoding="UTF-8"?>
<svg id="Layer_2" data-name="Layer 2" xmlns="http://www.w3.org/2000/svg" viewBox="0 0 502.25 500.24">
  <g id="Layer_1-2" data-name="Layer 1">
    <g>
      <path d="M234.66.49c202.3-12.23,335.8,205.13,230.93,379.79-97.99,163.2-340.39,158.92-433.31-6.94S51.07,11.6,234.66.49ZM191.29,111.67c-44.24,3.79-77.07,38.19-79.9,82.44-2.07,32.3-2.07,80.08,0,112.38,2.8,43.67,35.6,79.07,79.71,82.63,38.31,3.09,80.17-2,118.85.13,44.03-3.64,77.74-37.37,80.7-81.65,2.17-32.49,2.17-82.11,0-114.6-3.02-45.15-37.97-78.84-82.86-81.71-32.58-2.08-84.2-2.39-116.5.38Z"/>
      <path d="M189.02,142.75c37.88-4.75,84.27,2.85,123.04-.15,24.08,3.06,45.14,23.82,47.39,48.24,3.51,38.13-2.57,81.36,0,120.04-3.7,24.51-22.72,43.54-47.27,47.25-39.05-2.6-82.7,3.53-121.21,0-24.76-2.27-45.74-23.84-48.38-48.36,3-38.36-4.21-83.26.29-120.85,2.72-22.75,23.49-43.32,46.13-46.16ZM322.44,163.83c-10.36,2.37-10.96,20.56,1.15,22.88,19.18,3.68,19.34-27.56-1.15-22.88ZM245.79,179.49c-59.82,4.78-89.92,78.76-44.15,121.29,57.19,53.14,143.59-6.42,115.76-76.8-11.28-28.52-40.78-46.95-71.61-44.49Z"/>
      <path d="M282.33,281.04c-38,37.99-98.22-15.53-64.69-57.43,38.14-47.66,107.06,15.07,64.69,57.43Z"/>
    </g>
  </g>
</svg>