<?xml version="1.0" encoding="UTF-8"?>
<svg id="Layer_2" data-name="Layer 2" xmlns="http://www.w3.org/2000/svg" viewBox="0 0 475.78 475.63">
  <g id="Layer_1-2" data-name="Layer 1">
    <path d="M254.42,0l28.04,4.01c94.81,17.62,171.28,94.42,189.08,189.08l4.01,28.04c-.52,10.97.7,22.55,0,33.45-12.82,200.57-260.45,294.83-404.66,153.33C-74.91,264.84,18.48,12.5,220.98,0h33.45ZM175.12,174.35c28.51-28.96-12.68-74.41-44.28-47.53-33.66,28.63,13.1,79.21,44.28,47.53ZM249.78,216.49v-14.4c0-1.82-3.33-3.83-5.17-4.12-6.81-1.09-30.89-.91-38.06-.08-3.69.43-5.68,1.88-6.54,5.53l-.42,145.49c.6,5.14,3.9,7.47,8.8,7.92,8.06.74,26.56.9,34.44-.02,5-.59,6.56-3.12,6.99-7.87,2.35-25.76-6.75-81.94,8.32-101.32,11.35-14.6,35.62-12.18,42.9,5.41,8.85,21.38,1.19,70.44,3.51,95.91.43,4.76,2,7.29,6.99,7.87,8.3.97,27.8.8,36.3.02,4.76-.43,7.29-2,7.87-6.99-4.67-54.5,22.84-161.68-65.51-154.71-18.09,1.43-26.86,7.35-38.31,20.16-.55.62.07,1.78-2.12,1.19ZM132.44,198.1c-3.07.69-5.26,3.67-5.33,6.75l.22,145.7c.99,3,3.63,5.68,6.83,6.18,4.92.78,32.48.85,36.92-.14,4.14-.93,6.37-5.57,6.27-9.52l-.25-142.91c-1.15-3.23-2.21-5.61-5.88-6.19-5.11-.81-34.16-.89-38.77.14Z"/>
  </g>
</svg>