<?xml version="1.0" encoding="UTF-8"?>
<svg id="Layer_2" data-name="Layer 2" xmlns="http://www.w3.org/2000/svg" viewBox="0 0 389.4 445.4">
  <g id="Layer_1-2" data-name="Layer 1">
    <g>
      <path d="M198.25,0c4.3,2.04,8.36,5.25,9.37,10.2s.85,26.3.2,31.98c-1.79,15.66-24.36,15.45-26.11.89-.69-5.71-.84-28.56.22-33.74.94-4.63,5.43-7.56,9.37-9.33h6.96Z"/>
      <path d="M180.65,235.9c.96.96,1,3.19,1.11,4.54-2.1,36.58,2.67,76.03,0,112.26-1.07,14.51-7.61,26.29-16.98,36.94-12.43,14.13-36.63,39.34-50.88,50.88-5.32,4.31-9.76,6.51-16.54,3.48l-60.46-59.56c-4.3-5.49-3.48-11.51.46-16.98l32-32.36.14-99c22.7-52.25,50.82-102.56,75.53-154.07,7.59-12.52,18.88.42,24.97,7.55,15.03,17.62,14.4,36.4,5.79,57.13-11.87,28.58-30.42,56.64-42.64,85.2-10.94,25.58-6.24,50.09-7.03,77.22,2.54,13.7,23.66,12.96,25.19.08,2.4-20.37-7.64-57.64,12.42-70.2,3.26-2.04,13.9-6.11,16.92-3.1Z"/>
      <path d="M234.56,76.7c3.26-.63,6.86,1.19,8.78,3.88l75.11,150.15,1.59,7.98.15,97.26,32.47,32.76c3.58,5.35,2.94,11.61-.88,16.58-14.96,19.44-40.99,37.52-56.96,56.97-5.58,4.53-13.17,3.97-18.3-.88-19.6-24.57-65.29-52.42-68.59-85.35-3.69-36.8,2.58-79.1-.16-116.49,1.04-10.94,19.16-.79,23.51,4.42,11.32,13.56,4.12,44.97,6.11,62.6s24.29,16.66,26.09.87c1.35-11.81.85-35.63.03-47.87-2.07-30.97-36.96-81.15-49.76-112.01-6.69-16.12-9.5-35.17-.02-50.76,2.66-4.36,16.28-19.23,20.83-20.11Z"/>
      <path d="M331.96,55.86c11-1.74,18.81,9.33,13.99,19.22-1.92,3.95-26.54,28.68-30.88,31.73-12.68,8.92-27.07-3.69-19.99-16.51,1.86-3.38,27.15-28.79,30.99-31.63,1.81-1.34,3.62-2.46,5.89-2.82Z"/>
      <path d="M52.8,55.85c4-.58,7.87.98,11.08,3.29,4.09,2.95,26.88,25.68,29.51,29.63,8.41,12.58-5.11,26.93-18.06,18.93-3.72-2.3-27.65-26.36-30.51-30.37-5.96-8.35-2.13-20.01,7.98-21.48Z"/>
      <path d="M9.28,181.97c4.24-.86,31.97-.82,35.92.21,12.16,3.17,11.42,23.12-1.53,25.48-4.67.85-29.89.88-34.18-.21-13.05-3.32-12.19-23.04-.21-25.48Z"/>
      <path d="M344.99,181.97c5.47-1.11,25.87-.81,32.01-.23,16.84,1.59,15.96,23.98.76,26.05-6.64.9-22.64.72-29.53.11-16.77-1.48-16.53-23.23-3.24-25.93Z"/>
    </g>
  </g>
</svg>