<?xml version="1.0" encoding="UTF-8"?>
<svg id="Layer_2" data-name="Layer 2" xmlns="http://www.w3.org/2000/svg" viewBox="0 0 503.66 503.57">
  <g id="Layer_1-2" data-name="Layer 1">
    <g>
      <path d="M0,375.21v-.98c5.42-4.23,9.12-17.49,16.27-18.61,3.11-.48,6.62.3,9.76-.07,16.86-1.98,21.86-13.03,30.5-25.53l30.46,29.51-.53,12.73h17.68c-.49-8.88-.69-16.2,7.53-21.45,2.75-1.75,6.07-2.26,8.86-3.91,12.12-7.16,17.38-17.84,24.77-29.32l-13.17-10.05-8.84,11.68-15.23-15.69c7.39-.44,15.01-3.46,20.07-8.92,6.98-7.54,4.39-16.92,17.73-17.66,15.08-.84,12.69,6.52,19.19,15.27,4.47,6.03,11.86,10.19,19.26,11.19,3.67.5,7.72-.54,11.25.54,3.52,1.09,11.97,11.9,17.34,15.08,9.41,5.58,20,4.47,27.23,13.05,5.87,6.96,7.61,14.96,16.58,19.76s13.42,2.48,21.76,3.78c6.62,1.03,11.66,14.29,15.95,19.1.27,4.45-15.45,12.01-19.36,13.71-58.9,25.67-198.17,26.1-256.75-.6-6.6-3.01-13.84-6.87-18.32-12.63ZM193.06,381.1c4.62.65,10.45-.47,15.23,0v-16.7c-7.77.36-16.51.42-21.45-6.55-1.99-2.81-2.63-6.65-4.27-9.48-4.89-8.46-13.8-15.3-23.33-17.3l-6.54,14.69c3.78,2.57,9.12,4,12.35,7.35,3.68,3.82,4.45,9.91,7.44,14.17,3.85,5.49,13.87,12.87,20.57,13.81Z"/>
      <path d="M0,128.67c16.13,8.96,33.84,14.52,51.89,18.36,47.77,10.15,103.45,11.23,151.97,6.19,30.54-3.17,63.53-9.45,90.41-24.54,3.75,13.41-4.63,18.87-15.25,24.04-56.95,27.72-184.56,25.63-244.62,6.89-12.41-3.87-25.04-8.9-34.39-18.17v-12.77Z"/>
      <path d="M0,240.64c3.92-5.46,8.7-9.21,15.24-4.91l95.8,96.74c-6.27,1.88-11.69,5.64-16.22,10.31L0,247.52v-6.88Z"/>
      <path d="M14.74,0l52.58,54.03c-.96,1.3-20.51,6.13-22.08,5.43L0,14.73v-4.91C2.62,5.34,5.35,2.62,9.82,0h4.91Z"/>
      <path d="M291.8,399.77c-10.53,56.65-62.13,99.93-119.32,103.18-68.65,3.89-132.06-9-161.84-77.96-3.43-7.93-7.14-17.82-7.2-26.19.98,1.03,2.11,1.88,3.39,2.5,63,30.76,199.45,29.64,265.1,6.6,6.76-2.37,13.18-5.62,19.87-8.12Z"/>
      <path d="M342.69,156.47c60.27-4.93,116.57,28.29,138.7,84.61-.8,3.63-40.06,11.99-45.97,13.01-53.82,9.35-121.74,8.96-175.08-3.12-6.05-1.37-24.55-5.56-28.88-8.46-.83-.55-1.64-.94-1.41-2.15,18.01-45.71,63.32-79.85,112.63-83.88ZM353.38,176.13c-6.59-7.21-19.71,1.61-13.48,11.03,6.25,9.45,21.82-1.9,13.48-11.03ZM398.65,190.73c-11.98,1.01-9.63,18.05.66,17.48,11.82-.65,9.79-18.37-.66-17.48ZM319.05,208.4c-9.71,1.99-9.04,19.36,4.47,16.32,9.41-2.12,6.8-18.63-4.47-16.32ZM366.75,210.47c-7.62,7.61,3.48,20.1,12.03,12.52s-4.28-20.25-12.03-12.52ZM418.85,210.51c-8.44,7.72,4.79,20.64,12.49,11.99s-4.6-19.19-12.49-11.99ZM262.64,219.34c-7.21,7.88,3.64,19.91,11.99,12.48,8.65-7.69-4.27-20.92-11.99-12.48ZM352.43,234.97c-7.33,1.68-7.39,14.31,1.23,16.1,13.51,2.8,14.29-19.66-1.23-16.1Z"/>
      <path d="M500.08,286.81c-13.45,85.57-107.74,142.94-190.19,112.98-.87-1.23,3.51-23.67,2.33-28.81-.42-1.84-14.02-22.26-15.96-24.31-9.07-9.58-17.25-7.15-28.48-8.85-6.29-.95-11.19-13.28-15.3-18.1-12.75-14.94-39.62-9.14-42.24-33.4,4.57,1.08,8.48,4.11,12.8,5.87,64.15,26.11,191.49,26.22,256.66,3.2,6.97-2.46,13.5-5.98,20.39-8.58Z"/>
      <path d="M129.41,17.89c5.2-1.16,27.17-.82,33.24-.26,8.88.82,7.85,6.68,12.69,11.87,6.85,7.35,14.52,6.59,21.85,10.57,8.44,4.58,7.2,19.5,18.04,27.15,8.8,6.21,22.67,5.17,30.33,9.95,5,3.12,10.76,17.32,16.85,22.45,8.26,6.95,19.05,6.54,28.4,10.88-4.52,3.6-9.48,6.45-14.75,8.81-58.35,26.11-204.88,26.8-261.99-2.24-2.07-1.05-6.92-3.84-8.52-5.24-.9-.79-2.5-1.21-.65-2.32,3.52-2.13,14.92-3.09,20.18-5.36,15.29-6.59,15.75-24.22,29.15-28.81,11.94-4.09,23.96-2.88,32.06-15.09,4.42-6.66,3.71-16.07,11.26-20.17s15.05-2.96,22.29-11.11c2.93-3.3,4.98-10.04,9.56-11.07ZM147.04,34.66c-11.24.56-10.26,17.81.74,17.33s10.31-17.88-.74-17.33ZM110.76,52.23c-7.62,1.57-8.97,13.82-1.76,16.08,15.91,4.99,15.37-18.88,1.76-16.08ZM199.52,115.84l15.57-7.4c-3.07-8.59-8.54-17.49-17.79-20.35-6.65-2.06-16.36-.43-21.19-2.39-3.38-1.37-8.51-8.94-12.1-11.47-16.58-11.68-37.5-.5-41.14,18.03l14.2,6.85c13.23-26.81,19.8-3.06,32.91,2.55s25.97-3.55,29.54,14.19ZM60.57,86.73c-11.97.63-10.47,18.09.77,17.35s9.26-17.88-.77-17.35ZM93.07,104.31c-9.95,2.17-7.4,20.59,6.23,16.07,8.11-2.69,5.16-18.55-6.23-16.07Z"/>
      <path d="M250.53,179.75c.38,1.76-.94,2.38-1.94,3.46-4.02,4.32-20.59,7.8-27.49,10.82-14.35,6.27-29.06,15.25-30.53,32.35-1.64,19.09.92,40.36,2.01,59.46-15.15,2.89-13.55-7.22-20.23-15.63-10.32-12.99-35.64-13.48-47.59-2.56-5.19,4.75-7.4,15.6-12.02,17.45-5.14,2.05-14.37.18-19.91,3.37L27.53,223.43c-6.61-5.08-8.33-2.7-12.98-11.58-7.35-14.04-11.62-32.17-13.56-47.82l25.01,10.84c72.17,20.27,151.43,20.57,224.53,4.87Z"/>
      <path d="M503.03,250.47c4.38,17.2-15.08,23.94-27.98,28.49-59.81,21.1-194.25,23.26-251.41-5.05-10.55-5.23-17.09-9.01-15.35-22,.15-1.09-.36-2.02,1.46-1.44,3.3,1.04,9.63,5.4,13.6,7.03,63.29,25.96,190.1,25.96,254.67,3.8,8.67-2.98,16.57-7.43,25.01-10.84Z"/>
      <path d="M490.98,104.34c10.05-2.07,15.45,7.71,9.92,15.82l-50.58,50.6-16.59-10.64c-.95-.75.53-1.35,1.01-1.97,7.34-9.75,40.78-43.07,50.58-50.61,1.6-1.23,3.66-2.78,5.65-3.19Z"/>
      <path d="M215.16,232.79c-4.43.29-7.67-4.94-6.66-9.07,1.18-4.81,12.13-10.43,16.49-12.54l-9.83,21.61Z"/>
      <path d="M496.17,232.78l-9.83-21.61c8.83,3.71,26.25,15.21,9.83,21.61Z"/>
    </g>
  </g>
</svg>