<?xml version="1.0" encoding="UTF-8"?>
<svg id="Layer_2" data-name="Layer 2" xmlns="http://www.w3.org/2000/svg" viewBox="0 0 483.9 467.4">
  <defs>
    <style>
      .cls-1 {
        fill: #fff;
      }
    </style>
  </defs>
  <g id="Layer_1-2" data-name="Layer 1">
    <g>
      <g>
        <g>
          <path class="cls-1" d="M404.37,411.42c26.73-3.29,49.79,14.08,57.62,38.9,6.26.8,16.23-2.02,20.25,4.13,3.83,5.87.57,10.29-5.14,12.69l-237.64.25c-11.14.45-14.33-13.36-3.26-16.27,7.69-2.02,15.99.46,23.73-1.14,6.54-17.6,23.65-36.42,43.25-38.34,4.75-.47,9.72.75,14.42-.5,21.7-37.46,65.79-38.04,86.76.28Z"/>
          <path class="cls-1" d="M353.43,349.44c-.64-7.45-3.58-18.27-6.79-25.05-.6-1.27-4.84-8.5-5.43-8.99-2.75-2.32-18.12-6.97-22.99-9.36-19.05-9.34-40.17-25.76-46.85-46.69-6.83-21.4,1.25-23.36,20.56-18.57,23.05,5.72,40.27,24.97,51.71,44.81l9.77,18.57c-1.5-7.15,2.33-13.95,3-20.38.5-4.76-.51-10.23-.05-14.98,2.4-24.83,9.6-50.52,29.98-66.54,14.75-11.6,24.18-12.78,25.82,8.84,1.97,25.91-11.86,47.87-27.92,66.68-4.73,5.54-14.9,12.15-14.9,19.93v43.28c9.74-5.46,11.82-16.1,17.11-25.18,12.71-21.82,34.15-43.79,60.96-45.5,14.88-.95,14.93,5.07,11.5,17.46-5.58,20.16-22.51,35.4-40.14,45.43-9.88,5.62-23.8,9.13-32.25,14.51-1.97,1.26-15.33,13.13-16.23,14.62s-1.16,2.83-.94,4.52h-15.92c-.35-5.67.48-11.81,0-17.41Z"/>
        </g>
        <g>
          <path class="cls-1" d="M15.62,467.35c-8.31-1.17-15.89-8.8-15.52-17.44.26-6.17,8.44-12.16,11.87-17.06,21.46-30.65,8.68-88.41,6.15-124.22-2.72-38.53-3.63-77.86,5.92-115.5l63.18,3.61c7.98.12,15.99-.28,23.96-.08,70.81,1.77,138.37-.87,208.9-2.95,2.59-.08,4.57-2.42,6.31.67,1,1.77,1.36,5.84,1.84,8.11,3.02,14.13,3.59,28.65,5.29,42.96-6.65-3.09-11.81-8.55-18.23-12.1-35.37-19.54-77.59-12.39-56.56,36.66,12.15,28.34,42.31,47.79,70.7,57.16l-4.08,51.9-15.71,16.14c-26,.81-49.02,16.84-59.85,40.15-10.23.6-18.66-1.78-27.18,5.16-8.5,6.92-10.24,16.48-7.49,26.84H15.62ZM130.62,378.87c7.59,1.78,14.35,5.31,22.32,5.88,33.63,2.42,58.33-21.63,63.87-53.51,2.49-14.34.34-24.25,12.21-35.55,6.17-5.88,27.29-12.99,12.29-23.19-18.99-12.93-47.8-16.83-70.02-12.64-48.1,9.08-90.49,65.08-53.71,109.46-2.26,7.25-15.49,30.8-1.24,32.16,9.91.94,10.59-16.23,14.27-22.6Z"/>
          <path class="cls-1" d="M138.53,364.82c-1.64-2.28,11.59-20.37,13.93-23.31,5.07-6.37,11.43-12.87,17.36-18.46,3.07-2.9,10.87-7.25,12.02-10.87,1.94-6.07-2.18-12.08-8.76-10.81-5.22,1.01-24.76,20.67-29.12,25.67-6.85,7.86-12.65,16.9-17.89,25.88-9.71-11.33-7.66-28.54-1.35-41.15,12.27-24.53,43-40.04,69.99-38.44,5.2.31,22.38,3.77,26.39,6.45,1.66,1.11.61,1.07,0,2-2.5,3.79-7.75,7.33-10.77,12.12-9.76,15.41-5.97,27.34-10.84,42.89-8.47,27.01-34.7,39.14-60.94,28.03Z"/>
        </g>
      </g>
      <g>
        <path class="cls-1" d="M323.58,106.16c-16.12.98-32.16,1.27-48.25,2-79.3,3.57-159.6,4.02-238.83-1.99-3.46-.26-6.99.16-10.44,0,0-12.25,4.9-27.86,16.22-34.04,3.33-1.82,8.73-2.54,11.18-4.74,2.72-2.44,7.76-13.12,11.44-17.42,12.45-14.55,27.94-21.85,47.22-20.42,4.37.32,7.86,3.02,12.5,1.54,2.26-.72,13.3-15.12,17.34-18.49,21.96-18.28,49.98-16.29,70.21,3.47,3.07,2.99,9.98,14.07,12.83,15.03,4.48,1.51,8.22-1.23,12.51-1.55,20.07-1.49,34.96,5.76,47.76,20.87,3.69,4.36,8.89,14.96,12.36,17.49,2.48,1.82,7.01,2.7,10.32,4.61,11.32,6.53,15.79,21.24,15.63,33.64ZM178.01,22.79c-6.06,1.8-6.49,12.37-.45,14.96,14.83,6.36,17.04-19.89.45-14.96ZM140.8,59.07c7.77,7.11,19.18-3.47,12.18-11.68-8.05-9.45-20.35,4.21-12.18,11.68ZM245.68,62.1c6.89-6.89-3.13-20.05-11.7-12.2-8.91,8.15,4.47,19.43,11.7,12.2ZM96.35,51.75c-9.27.63-10.31,15.2-1.05,16.56,13.51,1.97,13.38-17.4,1.05-16.56ZM271.6,76.48c-11.33,1.48-9.14,18.22,2.63,16.72,10.53-1.35,7.3-18.01-2.63-16.72ZM124.3,78.49c-9.68,2.14-7.39,18.34,3.5,16.55s8.39-19.17-3.5-16.55ZM187.55,80.57c-8.43,10.01,9.48,20.31,13.87,9.41,4.16-10.32-8.6-15.67-13.87-9.41ZM58.63,80.46c-10.21,2.11-7.55,17.78,2.66,16.74,11.28-1.15,8.64-19.07-2.66-16.74Z"/>
        <path class="cls-1" d="M6.98,120.33c16.7-1.08,40.74,3.01,58.34,3.78,79.38,3.49,159.61,3.01,238.89-1,11.91-.6,27.14-3.4,38.62-2.96,6.76.26,7.01,2.33,6.49,8.27-.75,8.71-5.01,15.23-3.77,24.91.86,6.77,8.97,19.26-.83,22.22-11.97,3.61-37.02,2.53-50.49,3.24-73.41,3.88-145.43,4.1-218.93,1-20.77-.88-44.07-.58-64.56-3.1-18.32-2.26-7.56-12.42-6.53-24.23.83-9.54-5.28-22.58-4.05-28.89.53-2.73,4.25-3.09,6.82-3.26Z"/>
      </g>
    </g>
  </g>
</svg>