<?xml version="1.0" encoding="UTF-8"?>
<svg id="Layer_2" data-name="Layer 2" xmlns="http://www.w3.org/2000/svg" viewBox="0 0 488.58 501.49">
  <defs>
    <style>
      .cls-1 {
        fill: #fff;
      }
    </style>
  </defs>
  <g id="Layer_1-2" data-name="Layer 1">
    <g>
      <path class="cls-1" d="M423.06,501.29c-3.37-.4-11.21-3.07-14.67-4.42-30.74-12.01-53.89-54.99-39.65-86.63,17.48,13.38,34.84,18.05,56.76,17.62,3.69-.07,4.16-2.54,7.89.95,14.5,13.56,18.07,41.15,13.45,59.55-1.06,4.23-2.88,11.45-7.13,12.94-5.3-.45-11.48.62-16.64,0Z"/>
      <path class="cls-1" d="M291.87,501.29c-6.62-7.38-9.22-22.96-8.85-32.84,1.21-32.44,31.65-66.67,65.1-67.07,1.59-.02,5.06-.81,4.46,1.51-6.93,17.15-6.56,35.82-1.49,53.37,1.07,3.71,5.08,9.56,4.24,12.96-.43,1.73-7.44,10.71-9.11,12.5-5.99,6.42-14.16,11.42-22.06,15.15l-15.65,4.42h-16.64Z"/>
      <path class="cls-1" d="M122.98,254.56c6.94-1.48,8-15.18-1.04-16.59l-117.82-.16c-.3-11.15-11.97-33.69,5.37-36.04l464.04-.13c21.07-.05,8.79,23.77,8.18,36.16l-65.78.31c-9.03,2.02-5.67,16.44-.21,16.44h63.15c-3.2,22.54-6.82,45.72-18.27,65.67-14.08-1.95-28.88-1.93-42.42,2.87.53-29.51-14.5-57.37-40.23-71.88-11.35-6.4-13.54-5.75-24.7.6-24.68,14.06-40.57,42.75-38.87,71.28-19.7-6.98-41.39-6.04-60.39,2.76-7.49,3.47-28.58,17.29-28.73,26.1-.12,7.46,4.63,22.37,7.98,29.28,2.42,5.01,6.37,9.28,8.69,14.31l-103.34.05c-52.79-4.28-99.65-38.17-119.37-87.22-6.92-17.21-9.65-35.53-12.27-53.82h116.02ZM160.38,238.12c-6.79,4.1-7.12,11.28-.67,15.93h166.4c6.19-4.53,6.19-11.09,0-15.62l-165.73-.31Z"/>
      <path class="cls-1" d="M254.66,185.04l1.46-2.94L402.04,18.62c44.95-33.53,95.13,26.85,54.33,65.1l-114.08,101.32h-87.63Z"/>
      <path class="cls-1" d="M282.08,421.99c-6.42,9.66-11.36,19.99-14.21,31.31-.74,2.94-1.17,11.98-3.06,12.6l-128.15.16c-5.14-.41-9.03-5.13-8.28-10.22l31.03-42.69h101.64s21.03,8.84,21.03,8.84Z"/>
      <path class="cls-1" d="M355.51,384.78h-17.13c-9.54,0-28.74,10.49-36.63,16.24-6.52,4.75-3.87,7.87-14.22,5.24-21.79-5.53-41.58-29.06-44.37-51.23,33.33-36.75,100.52-17.07,112.36,29.75Z"/>
      <path class="cls-1" d="M372.16,380.86c-4.86-22.24-20.8-41.04-40.92-51.11l-.28-1.24c-1.56-26.19,10.89-52.07,34.83-63.79,38.15,16.63,45.78,72.99,21.03,103.88-1.44,1.8-12.93,13.82-14.66,12.26Z"/>
      <path class="cls-1" d="M416.37,341.86c18.97-8.68,40.62-8.39,58.88,1.99,2.24,1.27,11.34,7.46,12.5,9.04,3.12,4.24-3.37,18.24-5.78,22.76-18.34,34.38-70.44,46.93-100.99,21.37,18.88-12.19,32.68-32.57,35.39-55.15Z"/>
      <path class="cls-1" d="M67.65,157.63c-3.26,2.45-5.92-12.06-5.89-14.15.15-8.13,5.64-17.53,6.61-25.78,2.29-19.59-9.32-24.54-15.16-40.1-6.2-16.52-5.1-32.12,4.25-47.17C64.75,18.7,77.93,12.06,84.79,0c11.59,16.89-3.93,34.98-1.38,53.27.93,6.67,8.17,13.87,11.47,19.86,10.08,18.29,10.77,37-.38,55.05-7.89,12.76-21.31,15.83-26.86,29.45Z"/>
      <path class="cls-1" d="M173.39,0c11.14,18.7-8.06,38.68-.85,57.16,2.09,5.36,7.01,10.5,9.84,15.61,8.96,16.18,10.96,33.11,2.95,50.28-7.27,15.59-22.44,20.39-31.02,34.56-11.67-14.75,3.49-31.56,2.34-47.34s-17.54-27.01-19.35-47.25c-2.84-31.83,18.59-41.87,36.09-63.02Z"/>
    </g>
  </g>
</svg>