<?xml version="1.0" encoding="UTF-8"?>
<svg id="Layer_2" data-name="Layer 2" xmlns="http://www.w3.org/2000/svg" viewBox="0 0 436 431.77">
  <defs>
    <style>
      .cls-1 {
        fill: #fff;
      }
    </style>
  </defs>
  <g id="Layer_1-2" data-name="Layer 1">
    <g>
      <path class="cls-1" d="M315.27,390.54c1.32,9.71,6.43,22.83,6.62,32.3.08,4.22-1.14,7.36-5.41,8.69l-181.16.24c-16.66-1.51-.97-31.15-1.35-41.23-44.79-10.46-81.73-47.39-92.65-92.14-3.71-15.2-3.97-29.83-3.74-45.41-.88-1.37-27.23-6.58-31.47-8.27-3.58-1.42-5.35-3.33-5.81-7.29-.49-4.17-.48-24.32,1.06-27.07.66-1.18,1.76-2.04,2.93-2.68l399.36-.75c4.31-.21,7.73,2.72,7.92,7.05-1.18,28.76,3.14,58.59-4.23,86.64-11.49,43.73-48,79.71-92.06,89.91Z"/>
      <path class="cls-1" d="M245.18,192l68.72-102.13c.37-1.05-3.51-11.95-3.99-14.7-9.98-56.99,57.07-98.01,102.08-61.07,44.91,36.86,22.75,105.26-32.66,114.25l-31.8,63.65h-102.34Z"/>
      <path class="cls-1" d="M135.5,89.31c19.56,19.62,27.91,51.35,22.75,78.33-29-28.08-60.82-53.47-96.24-73.04l-6.18,12.13,1.53,2.33c33.75,19.19,64.78,43.2,91.58,71.27,6.65-.1,6.96-5.62,8.36-10.39.31-1.06-.61-1.65,1.42-1.35,2.6,2.68,15.83,16.49,15.31,19.07l-11.57,9.01c-1.77-2.66-10.73-14.91-13.05-14.95-1.05-.02-11.66,5.03-14.71,5.86-31.85,8.63-71.82-7.47-93.23-31.66-17.41-19.66-30.41-52.11-34.31-77.99-1.22-8.11-3.45-15.78,7.65-17.03,32.97-3.72,96.27,3.91,120.71,28.42Z"/>
      <path class="cls-1" d="M194.71,158.28c11.94-28.58,29.54-54.76,49.51-78.25l-10.2-9.41c-1.3-.33-3.78,2.88-4.7,3.87-11.34,12.38-23.46,31.11-31.96,45.7-2.76,4.74-14.26,24.55-14.59,28.42-.47,5.6,7.51,8.79,11.94,9.67-.99,2.36-3.7,12.57-5.26,13.04l-13.5-4.26,5.67-17.61c-28.51-58.88,11.84-93.23,63.08-112,19.23-7.04,25.19-11.92,28.39,11.86,4.02,29.89.07,61.02-20.4,84.17-13.91,15.72-36.26,29.11-57.97,24.79Z"/>
    </g>
  </g>
</svg>