<?xml version="1.0" encoding="UTF-8"?>
<svg id="Layer_2" data-name="Layer 2" xmlns="http://www.w3.org/2000/svg" viewBox="0 0 494.74 494.13">
  <defs>
    <style>
      .cls-1 {
        fill: #fff;
      }
    </style>
  </defs>
  <g id="Layer_1-2" data-name="Layer 1">
    <g>
      <path class="cls-1" d="M264.75,0l33.97,5.13c172.67,37.11,253.61,238.98,150.25,385.21C325.74,564.68,53.94,508.46,6.49,303.16L.22,264.53c.52-11.41-.7-23.42,0-34.76C7.66,109.39,109.62,7.43,230,0h34.76ZM212.42,157.65c-16.26.64-45.81,1.5-60.16,7.42-15.6,6.44-21.33,15.65-24.32,31.68-4.98,26.74-5.27,58.61-2.2,85.63,2.31,20.35,3.91,36.55,24.43,46.04,14.46,6.69,48.03,7.95,64.82,8.55,33.46,1.21,73.07.82,106.23-2.94,35.68-4.05,43.67-17.03,47.67-50.8,2.81-23.78,2.87-49.35,0-73.13-3.24-26.89-9.34-43.86-39.08-48.77-34.52-5.7-82.11-5.08-117.4-3.68Z"/>
      <polygon class="cls-1" points="217.45 199.84 294.69 246.68 217.45 294.46 217.45 199.84"/>
    </g>
  </g>
</svg>